<?xml version="1.0" encoding="UTF-8"?>
<svg id="Layer_1" data-name="Layer 1" xmlns="http://www.w3.org/2000/svg" viewBox="0 0 49.96 49.47">
  <defs>
    <style>
      .cls-1 {
        fill: #f3ede4;
        stroke-width: .89px;
      }

      .cls-1, .cls-2, .cls-3 {
        stroke: #e07a5f;
        stroke-miterlimit: 10;
      }

      .cls-2 {
        fill: #e07a5f;
      }

      .cls-3 {
        fill: #f1b4a7;
        stroke-width: 3.54px;
      }
    </style>
  </defs>
  <circle class="cls-1" cx="25.36" cy="24.58" r="24.36"/>
  <rect class="cls-3" x="10.44" y="9.66" width="29.85" height="29.85" rx="9.27" ry="9.27"/>
  <rect class="cls-2" x="16.79" y="25.6" width="3.66" height="11.85"/>
  <path class="cls-2" d="M34.55,28.91v8.55h-3.66v-5.95c0-.86-.48-1.69-1.29-2-.89-.34-1.77-.06-2.34.49-.39.4-.64.95-.64,1.55v5.9h-3.66v-11.86h1.59l.15,1.39.74-.67c.51-.46,1.17-.72,1.86-.72h3.94c1.83,0,3.31,1.48,3.31,3.31Z"/>
  <circle class="cls-2" cx="18.65" cy="21.06" r="1.83"/>
</svg>