<?xml version="1.0" encoding="UTF-8"?>
<svg id="Layer_1" data-name="Layer 1" xmlns="http://www.w3.org/2000/svg" viewBox="0 0 49.96 49.47">
  <defs>
    <style>
      .cls-1 {
        fill: none;
        stroke-width: 1.77px;
      }

      .cls-1, .cls-2, .cls-3 {
        stroke: #e07a5f;
        stroke-miterlimit: 10;
      }

      .cls-2 {
        fill: #f3ede4;
        stroke-width: .89px;
      }

      .cls-3 {
        fill: #f1b4a7;
        stroke-width: 3.54px;
      }
    </style>
  </defs>
  <circle class="cls-2" cx="25.11" cy="25.12" r="24.12"/>
  <rect class="cls-3" x="9.83" y="9.65" width="29.55" height="29.55" rx="9.27" ry="9.27"/>
  <g>
    <path class="cls-1" d="M19.64,19.64c-.43,1.42-.67,3.05-.67,4.78h-5.39c0-2.66.94-5.08,2.48-6.97.98.91,2.18,1.65,3.58,2.18Z"/>
    <path class="cls-1" d="M19.62,29.13c-1.4.53-2.64,1.28-3.6,2.2-1.54-1.89-2.44-4.29-2.44-6.91h5.39c0,1.69.24,3.31.65,4.7Z"/>
    <path class="cls-1" d="M35.62,24.42c0,2.62-.91,5.02-2.44,6.91-.94-.89-2.13-1.63-3.46-2.15.41-1.42.65-3.05.65-4.76h5.25Z"/>
    <path class="cls-1" d="M35.62,24.42h-5.25c0-1.75-.24-3.4-.69-4.84,1.34-.53,2.52-1.26,3.46-2.13,1.54,1.89,2.48,4.31,2.48,6.97Z"/>
    <path class="cls-1" d="M24.6,13.4v.81c-2.15.06-4.01,2.24-4.96,5.43-1.4-.53-2.6-1.28-3.58-2.18,2.03-2.48,5.1-4.05,8.54-4.05Z"/>
    <path class="cls-1" d="M33.15,17.46c-.94.87-2.13,1.59-3.46,2.13-.94-3.19-2.83-5.37-5-5.37h-.08v-.81c3.44,0,6.51,1.57,8.54,4.05Z"/>
    <path class="cls-1" d="M24.6,34.64v.81c-3.46,0-6.57-1.61-8.58-4.11.96-.92,2.2-1.67,3.6-2.2.94,3.25,2.81,5.45,4.98,5.51Z"/>
    <path class="cls-1" d="M33.18,31.33c-2.01,2.5-5.12,4.11-8.58,4.11v-.81h.08c2.18,0,4.07-2.2,5.04-5.45,1.34.51,2.52,1.26,3.46,2.15Z"/>
    <path class="cls-1" d="M29.72,29.19c-.96,3.25-2.85,5.45-5.04,5.45h-.08v-6.42c1.85,0,3.58.33,5.12.96Z"/>
    <path class="cls-1" d="M24.6,24.42v3.8c-1.79,0-3.48.31-4.98.91-.41-1.4-.65-3.01-.65-4.7h5.63Z"/>
    <path class="cls-1" d="M29.68,19.58c-1.52.61-3.25.94-5.08.94v-6.32h.08c2.16,0,4.05,2.18,5,5.37Z"/>
    <path class="cls-1" d="M30.37,24.42h-5.77v-3.9c1.83,0,3.56-.33,5.08-.94.45,1.44.69,3.09.69,4.84Z"/>
    <path class="cls-1" d="M24.6,28.22v6.42c-2.16-.06-4.03-2.26-4.98-5.51,1.5-.59,3.19-.91,4.98-.91Z"/>
    <path class="cls-1" d="M24.6,20.53v3.9h-5.63c0-1.73.24-3.37.67-4.78,1.5.57,3.17.89,4.96.89Z"/>
    <path class="cls-1" d="M24.6,14.21v6.32c-1.79,0-3.46-.31-4.96-.89.94-3.19,2.81-5.37,4.96-5.43Z"/>
    <path class="cls-1" d="M30.37,24.42c0,1.71-.24,3.35-.65,4.76-1.54-.63-3.27-.96-5.12-.96v-3.8h5.77Z"/>
  </g>
</svg>